<?xml version="1.0" encoding="utf-8"?>
<!-- Generator: Adobe Illustrator 18.1.1, SVG Export Plug-In . SVG Version: 6.00 Build 0)  -->
<svg version="1.1" xmlns="http://www.w3.org/2000/svg" xmlns:xlink="http://www.w3.org/1999/xlink" x="0px" y="0px"
	 viewBox="0 0 566.9 230.3" enable-background="new 0 0 566.9 230.3" xml:space="preserve">
<g id="paillasse">
</g>
<g id="Calque_1">
	<path fill="#23507A" d="M481.9,165.5H80.2c-3.1,0-5.7-2.6-5.7-5.7V69c0-3.1,2.6-5.7,5.7-5.7h401.7c3.1,0,5.7,2.6,5.7,5.7v90.8
		C487.5,162.9,485,165.5,481.9,165.5z"/>
	<rect x="74.5" y="59.6" fill="#3471A9" width="413" height="97.7"/>
</g>
<g id="Calque_3">
	<g>
		<g>
			<path fill="#FFFFFF" d="M220.7,93.5c0-1.1-0.4-2-1.3-2.7s-2.3-1.4-4.4-2c-2.3-0.6-4-1.4-5.2-2.3s-1.8-2.2-1.8-3.8
				c0-1.6,0.7-3,2-4s3-1.6,5.1-1.6c2.2,0,3.9,0.6,5.2,1.8s2,2.7,1.9,4.5l0,0.1h-1.6c0-1.4-0.5-2.6-1.5-3.5s-2.3-1.4-3.9-1.4
				c-1.7,0-3,0.4-3.9,1.2s-1.4,1.8-1.4,2.9c0,1.1,0.4,2,1.3,2.7s2.4,1.4,4.5,2c2.2,0.7,4,1.5,5.1,2.4s1.8,2.2,1.8,3.8
				c0,1.7-0.7,3-2.1,4s-3.1,1.5-5.2,1.5s-3.9-0.5-5.5-1.6s-2.3-2.6-2.3-4.7l0-0.1h1.6c0,1.7,0.6,2.9,1.9,3.7s2.7,1.2,4.2,1.2
				c1.6,0,3-0.4,4-1.1S220.7,94.7,220.7,93.5z"/>
			<path fill="#FFFFFF" d="M232.6,99c-2.1,0-3.7-0.7-5-2.2s-1.9-3.3-1.9-5.6v-0.8c0-2.3,0.6-4.2,1.9-5.7s2.9-2.2,4.8-2.2
				c1.9,0,3.4,0.6,4.5,1.9s1.6,2.9,1.6,5v1.4h-11v0.5c0,1.8,0.5,3.3,1.4,4.5s2.2,1.8,3.8,1.8c1,0,1.9-0.2,2.7-0.5s1.5-0.7,2-1.3
				L238,97c-0.6,0.6-1.3,1.1-2.2,1.5S233.8,99,232.6,99z M232.4,84c-1.3,0-2.5,0.5-3.3,1.5s-1.4,2.2-1.5,3.7l0,0.1h9.1v-0.4
				c0-1.4-0.4-2.6-1.1-3.5S233.8,84,232.4,84z"/>
			<path fill="#FFFFFF" d="M255.4,97.5c1.1,0,2.1-0.3,3-1s1.3-1.6,1.3-2.8h1.6l0,0.1c0,1.5-0.5,2.7-1.7,3.7s-2.6,1.5-4.1,1.5
				c-2.1,0-3.8-0.7-4.9-2.2s-1.8-3.4-1.8-5.7v-0.6c0-2.3,0.6-4.2,1.8-5.7s2.8-2.2,4.9-2.2c1.7,0,3.1,0.5,4.2,1.5s1.7,2.4,1.6,4
				l0,0.1h-1.6c0-1.3-0.4-2.3-1.2-3s-1.8-1.1-3-1.1c-1.7,0-2.9,0.6-3.7,1.8s-1.2,2.7-1.2,4.6v0.6c0,1.9,0.4,3.4,1.2,4.6
				S253.7,97.5,255.4,97.5z"/>
			<path fill="#FFFFFF" d="M264.2,90.5c0-2.3,0.6-4.2,1.9-5.7s3-2.2,5.1-2.2c2.1,0,3.8,0.7,5.1,2.2s1.9,3.4,1.9,5.7V91
				c0,2.3-0.6,4.3-1.9,5.7s-3,2.2-5.1,2.2c-2.1,0-3.8-0.7-5.1-2.2s-1.9-3.4-1.9-5.7V90.5z M265.9,91c0,1.8,0.5,3.4,1.4,4.6
				s2.2,1.9,3.9,1.9c1.6,0,2.9-0.6,3.8-1.9s1.4-2.8,1.4-4.6v-0.5c0-1.8-0.5-3.3-1.4-4.6s-2.2-1.9-3.9-1.9s-2.9,0.6-3.9,1.9
				s-1.4,2.8-1.4,4.6V91z"/>
			<path fill="#FFFFFF" d="M283.6,82.8l0.2,2.8c0.5-1,1.2-1.7,2.1-2.2s1.9-0.8,3.1-0.8c1.7,0,3,0.5,3.9,1.6s1.3,2.7,1.3,4.9v9.7
				h-1.8v-9.6c0-1.8-0.3-3.1-1-3.9s-1.6-1.1-2.9-1.1s-2.3,0.3-3,0.9s-1.3,1.4-1.7,2.5v11.2H282V82.8H283.6z"/>
			<path fill="#FFFFFF" d="M300.4,82.8l0.2,2.8c0.5-1,1.2-1.7,2.1-2.2s1.9-0.8,3.1-0.8c1.7,0,3,0.5,3.9,1.6s1.3,2.7,1.3,4.9v9.7
				h-1.8v-9.6c0-1.8-0.3-3.1-1-3.9s-1.6-1.1-2.9-1.1s-2.3,0.3-3,0.9s-1.3,1.4-1.7,2.5v11.2h-1.8V82.8H300.4z"/>
			<path fill="#FFFFFF" d="M321.7,99c-2.1,0-3.7-0.7-5-2.2s-1.9-3.3-1.9-5.6v-0.8c0-2.3,0.6-4.2,1.9-5.7s2.9-2.2,4.8-2.2
				c1.9,0,3.4,0.6,4.5,1.9s1.6,2.9,1.6,5v1.4h-11v0.5c0,1.8,0.5,3.3,1.4,4.5s2.2,1.8,3.8,1.8c1,0,1.9-0.2,2.7-0.5s1.5-0.7,2-1.3
				l0.7,1.2c-0.6,0.6-1.3,1.1-2.2,1.5S323,99,321.7,99z M321.6,84c-1.3,0-2.5,0.5-3.3,1.5s-1.4,2.2-1.5,3.7l0,0.1h9.1v-0.4
				c0-1.4-0.4-2.6-1.1-3.5S322.9,84,321.6,84z"/>
			<path fill="#FFFFFF" d="M337.1,97.5c1.1,0,2.1-0.3,3-1s1.3-1.6,1.3-2.8h1.6l0,0.1c0,1.5-0.5,2.7-1.7,3.7s-2.6,1.5-4.1,1.5
				c-2.1,0-3.8-0.7-4.9-2.2s-1.8-3.4-1.8-5.7v-0.6c0-2.3,0.6-4.2,1.8-5.7s2.8-2.2,4.9-2.2c1.7,0,3.1,0.5,4.2,1.5s1.7,2.4,1.6,4
				l0,0.1h-1.6c0-1.3-0.4-2.3-1.2-3s-1.8-1.1-3-1.1c-1.7,0-2.9,0.6-3.7,1.8s-1.2,2.7-1.2,4.6v0.6c0,1.9,0.4,3.4,1.2,4.6
				S335.4,97.5,337.1,97.5z"/>
			<path fill="#FFFFFF" d="M349.6,78.8v4.1h3.5v1.4h-3.5v10.3c0,1,0.2,1.8,0.6,2.2s0.9,0.7,1.5,0.7c0.2,0,0.4,0,0.6,0
				s0.4-0.1,0.7-0.1l0.3,1.3c-0.2,0.1-0.5,0.2-0.9,0.3s-0.7,0.1-1,0.1c-1.1,0-2-0.4-2.6-1.1s-0.9-1.8-0.9-3.3V84.3h-2.7v-1.4h2.7
				v-4.1H349.6z"/>
			<path fill="#FFFFFF" d="M362.7,99c-2.1,0-3.7-0.7-5-2.2s-1.9-3.3-1.9-5.6v-0.8c0-2.3,0.6-4.2,1.9-5.7s2.9-2.2,4.8-2.2
				c1.9,0,3.4,0.6,4.5,1.9s1.6,2.9,1.6,5v1.4h-11v0.5c0,1.8,0.5,3.3,1.4,4.5s2.2,1.8,3.8,1.8c1,0,1.9-0.2,2.7-0.5s1.5-0.7,2-1.3
				l0.7,1.2c-0.6,0.6-1.3,1.1-2.2,1.5S364,99,362.7,99z M362.5,84c-1.3,0-2.5,0.5-3.3,1.5s-1.4,2.2-1.5,3.7l0,0.1h9.1v-0.4
				c0-1.4-0.4-2.6-1.1-3.5S363.9,84,362.5,84z"/>
			<path fill="#FFFFFF" d="M379.5,84.4l-1.2-0.1c-1.1,0-2,0.3-2.7,0.9s-1.2,1.5-1.5,2.6v10.9h-1.8V82.8h1.5l0.2,2.6v0.2
				c0.5-1,1.1-1.7,1.8-2.3s1.7-0.8,2.8-0.8c0.2,0,0.4,0,0.6,0.1s0.4,0.1,0.5,0.1L379.5,84.4z"/>
			<path fill="#FFFFFF" d="M400.1,98.7c-0.1-0.6-0.2-1-0.2-1.4s-0.1-0.8-0.1-1.2c-0.5,0.9-1.3,1.6-2.3,2.1s-2.1,0.8-3.4,0.8
				c-1.6,0-2.8-0.4-3.6-1.2s-1.3-1.9-1.3-3.4s0.6-2.6,1.9-3.4s2.9-1.3,4.8-1.3h3.9v-2c0-1.1-0.4-2-1.1-2.7s-1.7-1-3-1
				c-1.2,0-2.2,0.3-2.9,0.9s-1.1,1.3-1.1,2.2h-1.6l0-0.1c-0.1-1.2,0.5-2.2,1.5-3.1s2.5-1.4,4.2-1.4s3.1,0.4,4.2,1.3s1.6,2.2,1.6,3.8
				v7.8c0,0.6,0,1.1,0.1,1.6s0.2,1,0.3,1.6H400.1z M394.3,97.4c1.3,0,2.5-0.3,3.5-1s1.7-1.5,2-2.5v-3h-3.9c-1.4,0-2.6,0.3-3.5,1
				s-1.4,1.5-1.4,2.5c0,0.9,0.3,1.6,0.9,2.2S393.3,97.4,394.3,97.4z"/>
			<path fill="#FFFFFF" d="M410.7,94.7l0.5,1.9h0.1l0.6-1.9l4.3-11.9h1.8l-6,15.8h-1.4l-6-15.8h1.8L410.7,94.7z"/>
			<path fill="#FFFFFF" d="M426.8,99c-2.1,0-3.7-0.7-5-2.2s-1.9-3.3-1.9-5.6v-0.8c0-2.3,0.6-4.2,1.9-5.7s2.9-2.2,4.8-2.2
				c1.9,0,3.4,0.6,4.5,1.9s1.6,2.9,1.6,5v1.4h-11v0.5c0,1.8,0.5,3.3,1.4,4.5s2.2,1.8,3.8,1.8c1,0,1.9-0.2,2.7-0.5s1.5-0.7,2-1.3
				l0.7,1.2c-0.6,0.6-1.3,1.1-2.2,1.5S428.1,99,426.8,99z M426.7,84c-1.3,0-2.5,0.5-3.3,1.5s-1.4,2.2-1.5,3.7l0,0.1h9.1v-0.4
				c0-1.4-0.4-2.6-1.1-3.5S428,84,426.7,84z"/>
			<path fill="#FFFFFF" d="M442.2,97.5c1.1,0,2.1-0.3,3-1s1.3-1.6,1.3-2.8h1.6l0,0.1c0,1.5-0.5,2.7-1.7,3.7s-2.6,1.5-4.1,1.5
				c-2.1,0-3.8-0.7-4.9-2.2s-1.8-3.4-1.8-5.7v-0.6c0-2.3,0.6-4.2,1.8-5.7s2.8-2.2,4.9-2.2c1.7,0,3.1,0.5,4.2,1.5s1.7,2.4,1.6,4
				l0,0.1h-1.6c0-1.3-0.4-2.3-1.2-3s-1.8-1.1-3-1.1c-1.7,0-2.9,0.6-3.7,1.8s-1.2,2.7-1.2,4.6v0.6c0,1.9,0.4,3.4,1.2,4.6
				S440.5,97.5,442.2,97.5z"/>
		</g>
		<g>
			<path fill="#FFFFFF" d="M221.8,124.5h-11V136h-3.5v-26h16.3v2.8h-12.8v9h11V124.5z"/>
			<path fill="#FFFFFF" d="M235.7,119.8l-1.8-0.1c-0.9,0-1.7,0.2-2.3,0.7s-1.1,1.1-1.5,1.9V136h-3.5v-19.3h3.1l0.3,2.8
				c0.5-1,1.2-1.8,2-2.3s1.7-0.8,2.8-0.8c0.3,0,0.5,0,0.8,0.1c0.2,0,0.4,0.1,0.6,0.1L235.7,119.8z"/>
			<path fill="#FFFFFF" d="M251.3,136c-0.1-0.6-0.2-1.1-0.3-1.5s-0.1-0.9-0.1-1.3c-0.7,0.9-1.5,1.7-2.6,2.3s-2.2,0.9-3.4,0.9
				c-2,0-3.5-0.5-4.6-1.5c-1.1-1-1.6-2.4-1.6-4.3c0-1.8,0.7-3.3,2.2-4.3c1.5-1,3.5-1.6,6.1-1.6h3.8v-1.9c0-1.1-0.3-2-1-2.7
				c-0.7-0.7-1.7-1-2.9-1c-1.1,0-2.1,0.3-2.8,0.9c-0.7,0.6-1.1,1.3-1.1,2.1l-3.3,0l0-0.1c-0.1-1.4,0.6-2.7,2-3.9
				c1.4-1.2,3.2-1.7,5.4-1.7c2.2,0,4,0.6,5.3,1.7c1.3,1.1,2,2.7,2,4.8v9.3c0,0.7,0,1.4,0.1,2c0.1,0.6,0.2,1.3,0.4,1.9H251.3z
				 M245.4,133.4c1.3,0,2.4-0.3,3.4-1c1-0.7,1.7-1.4,2-2.3V127h-3.9c-1.4,0-2.6,0.4-3.4,1.1c-0.9,0.7-1.3,1.6-1.3,2.5
				c0,0.9,0.3,1.5,0.8,2S244.4,133.4,245.4,133.4z"/>
			<path fill="#FFFFFF" d="M262.6,116.6l0.2,2.9c0.6-1,1.4-1.8,2.4-2.4c1-0.6,2.1-0.8,3.3-0.8c2.1,0,3.7,0.6,4.8,1.8
				c1.1,1.2,1.7,3.1,1.7,5.7V136h-3.5v-12.1c0-1.7-0.3-2.9-1-3.6c-0.7-0.7-1.7-1.1-3.1-1.1c-1.1,0-2,0.2-2.8,0.7
				c-0.8,0.4-1.4,1-1.8,1.8V136h-3.5v-19.3H262.6z"/>
			<path fill="#FFFFFF" d="M288,133.6c1.1,0,2-0.4,2.8-1.1c0.8-0.7,1.2-1.6,1.2-2.7h3.2l0.1,0.1c0,1.7-0.7,3.1-2.1,4.4
				c-1.5,1.3-3.2,1.9-5.1,1.9c-2.7,0-4.8-0.9-6.3-2.8c-1.5-1.8-2.2-4.1-2.2-6.9v-0.8c0-2.7,0.7-5,2.2-6.9s3.6-2.8,6.3-2.8
				c2.2,0,3.9,0.7,5.3,2c1.4,1.3,2,3,2,4.9l0,0.1H292c0-1.2-0.4-2.2-1.2-3c-0.8-0.8-1.7-1.2-2.9-1.2c-1.7,0-3,0.7-3.8,2
				c-0.8,1.3-1.2,3-1.2,4.9v0.8c0,1.9,0.4,3.6,1.2,4.9C285,132.9,286.2,133.6,288,133.6z"/>
			<path fill="#FFFFFF" d="M307.4,136.3c-2.8,0-4.9-0.9-6.5-2.7c-1.6-1.8-2.3-4.1-2.3-7v-0.8c0-2.8,0.8-5.1,2.4-6.9
				c1.6-1.8,3.6-2.7,5.9-2.7c2.6,0,4.5,0.8,5.8,2.4s1.9,3.7,1.9,6.4v1.9h-12.4l-0.1,0.1c0,1.9,0.4,3.5,1.3,4.7
				c0.9,1.2,2.2,1.8,3.9,1.8c1.2,0,2.2-0.2,3.1-0.5c0.9-0.3,1.7-0.8,2.3-1.4l1.4,2.3c-0.7,0.7-1.6,1.2-2.7,1.7
				C310.4,136.1,309,136.3,307.4,136.3z M306.9,119.1c-1.2,0-2.2,0.5-3,1.4c-0.8,0.9-1.3,2.2-1.5,3.6l0,0.1h8.7v-0.3
				c0-1.4-0.3-2.6-1-3.5S308.3,119.1,306.9,119.1z"/>
			<path fill="#FFFFFF" d="M337.6,127.6l0,0.1c0,2.4-0.8,4.5-2.6,6.1c-1.8,1.6-4.1,2.5-7,2.5c-2.9,0-5.3-1-7.2-3.1
				c-1.9-2.1-2.8-4.7-2.8-7.9v-4.6c0-3.2,0.9-5.8,2.8-7.9c1.9-2.1,4.2-3.1,7.2-3.1s5.3,0.8,7,2.3c1.7,1.6,2.6,3.6,2.5,6.2l0,0.1
				h-3.4c0-1.8-0.5-3.3-1.6-4.3s-2.6-1.6-4.5-1.6c-2,0-3.5,0.8-4.7,2.4c-1.2,1.6-1.8,3.5-1.8,5.9v4.7c0,2.4,0.6,4.3,1.8,5.9
				c1.2,1.6,2.7,2.4,4.7,2.4c2,0,3.5-0.5,4.5-1.6s1.6-2.5,1.6-4.4H337.6z"/>
			<path fill="#FFFFFF" d="M340.9,126.1c0-2.9,0.8-5.2,2.3-7.1s3.6-2.8,6.3-2.8c2.7,0,4.8,0.9,6.3,2.8s2.3,4.2,2.3,7.1v0.4
				c0,2.9-0.8,5.2-2.3,7.1c-1.5,1.8-3.7,2.8-6.3,2.8s-4.8-0.9-6.3-2.8c-1.6-1.8-2.3-4.2-2.3-7.1V126.1z M344.4,126.5
				c0,2,0.4,3.7,1.3,5.1c0.9,1.3,2.1,2,3.8,2c1.7,0,3-0.7,3.8-2c0.9-1.3,1.3-3,1.3-5.1v-0.4c0-2-0.4-3.7-1.3-5.1
				c-0.9-1.3-2.2-2-3.8-2c-1.7,0-3,0.7-3.8,2c-0.9,1.3-1.3,3-1.3,5.1V126.5z"/>
			<path fill="#FFFFFF" d="M365.7,116.6l0.2,2.9c0.6-1,1.4-1.8,2.4-2.4c1-0.6,2.1-0.8,3.3-0.8c2.1,0,3.7,0.6,4.8,1.8
				c1.1,1.2,1.7,3.1,1.7,5.7V136h-3.5v-12.1c0-1.7-0.3-2.9-1-3.6c-0.7-0.7-1.7-1.1-3.1-1.1c-1.1,0-2,0.2-2.8,0.7
				c-0.8,0.4-1.4,1-1.8,1.8V136h-3.5v-19.3H365.7z"/>
			<path fill="#FFFFFF" d="M386.5,116.6l0.2,2.9c0.6-1,1.4-1.8,2.4-2.4c1-0.6,2.1-0.8,3.3-0.8c2.1,0,3.7,0.6,4.8,1.8
				c1.1,1.2,1.7,3.1,1.7,5.7V136h-3.5v-12.1c0-1.7-0.3-2.9-1-3.6c-0.7-0.7-1.7-1.1-3.1-1.1c-1.1,0-2,0.2-2.8,0.7
				c-0.8,0.4-1.4,1-1.8,1.8V136h-3.5v-19.3H386.5z"/>
			<path fill="#FFFFFF" d="M412.1,136.3c-2.8,0-4.9-0.9-6.5-2.7c-1.6-1.8-2.3-4.1-2.3-7v-0.8c0-2.8,0.8-5.1,2.4-6.9
				c1.6-1.8,3.6-2.7,5.9-2.7c2.6,0,4.5,0.8,5.8,2.4s1.9,3.7,1.9,6.4v1.9h-12.4l-0.1,0.1c0,1.9,0.4,3.5,1.3,4.7
				c0.9,1.2,2.2,1.8,3.9,1.8c1.2,0,2.2-0.2,3.1-0.5c0.9-0.3,1.7-0.8,2.3-1.4l1.4,2.3c-0.7,0.7-1.6,1.2-2.7,1.7
				C415.1,136.1,413.7,136.3,412.1,136.3z M411.6,119.1c-1.2,0-2.2,0.5-3,1.4c-0.8,0.9-1.3,2.2-1.5,3.6l0,0.1h8.7v-0.3
				c0-1.4-0.3-2.6-1-3.5S413,119.1,411.6,119.1z"/>
			<path fill="#FFFFFF" d="M430.9,133.6c1.1,0,2-0.4,2.8-1.1c0.8-0.7,1.2-1.6,1.2-2.7h3.2l0.1,0.1c0,1.7-0.7,3.1-2.1,4.4
				c-1.5,1.3-3.2,1.9-5.1,1.9c-2.7,0-4.8-0.9-6.3-2.8c-1.5-1.8-2.2-4.1-2.2-6.9v-0.8c0-2.7,0.7-5,2.2-6.9s3.6-2.8,6.3-2.8
				c2.2,0,3.9,0.7,5.3,2c1.4,1.3,2,3,2,4.9l0,0.1H435c0-1.2-0.4-2.2-1.2-3c-0.8-0.8-1.7-1.2-2.9-1.2c-1.7,0-3,0.7-3.8,2
				c-0.8,1.3-1.2,3-1.2,4.9v0.8c0,1.9,0.4,3.6,1.2,4.9C427.9,132.9,429.2,133.6,430.9,133.6z"/>
			<path fill="#FFFFFF" d="M447.3,112v4.7h3.7v2.6h-3.7V131c0,0.9,0.2,1.5,0.6,1.9c0.4,0.4,0.9,0.6,1.5,0.6c0.2,0,0.4,0,0.7-0.1
				s0.5-0.1,0.6-0.2l0.5,2.4c-0.3,0.2-0.6,0.4-1.2,0.5c-0.5,0.1-1,0.2-1.5,0.2c-1.4,0-2.6-0.4-3.4-1.3c-0.8-0.9-1.3-2.2-1.3-4.1
				v-11.7h-3.1v-2.6h3.1V112H447.3z"/>
		</g>
	</g>
	<g>
		<g>
			<path fill="#FFFFFF" d="M140.5,145.5c-1,0-2-0.2-2.7-0.6l-28.4-16.1c-1.5-0.9-2.8-3-2.8-4.7l-0.2-32.5c0-1.7,1.2-3.9,2.7-4.8
				l28.2-16.4c0.7-0.4,1.7-0.7,2.8-0.7c1,0,2,0.2,2.7,0.6l28.4,16.1c1.5,0.9,2.8,3,2.8,4.7l0.2,32.5c0,1.7-1.2,3.9-2.7,4.8
				l-28.2,16.4C142.6,145.3,141.6,145.5,140.5,145.5z"/>
			<path fill="#FFFFFF" d="M140.1,69.8c1,0,2,0.2,2.7,0.6l28.4,16.1c1.5,0.9,2.8,3,2.8,4.7l0.2,32.5c0,1.7-1.2,3.9-2.7,4.7
				l-28.2,16.4c-0.8,0.4-1.8,0.7-2.8,0.7c-1,0-2-0.2-2.7-0.6l-28.4-16.1c-1.5-0.9-2.8-3-2.8-4.7l-0.2-32.5c0-1.7,1.2-3.9,2.7-4.7
				l28.2-16.4C138.1,70,139.1,69.8,140.1,69.8 M140.1,69.7c-1.1,0-2.1,0.2-2.8,0.7l-28.2,16.4c-1.5,0.9-2.8,3-2.7,4.8l0.2,32.5
				c0,1.8,1.3,3.9,2.8,4.8l28.4,16.1c0.7,0.4,1.7,0.6,2.7,0.6c1.1,0,2.1-0.2,2.8-0.7l28.2-16.4c1.5-0.9,2.8-3,2.7-4.8L174,91.2
				c0-1.8-1.3-3.9-2.8-4.8l-28.4-16.1C142.1,70,141.2,69.7,140.1,69.7L140.1,69.7z"/>
		</g>
		<g>
			<path fill="none" stroke="#3572AA" stroke-width="1.635" stroke-linejoin="round" stroke-miterlimit="10" d="M137.5,145
				c1.5,0.9,4,0.9,5.5,0l28.3-16.3c1.5-0.9,2.7-3,2.8-4.7l0-1.6l0,1.6c0,1.7-1.2,3.9-2.8,4.7L143,145
				C141.5,145.9,139,145.9,137.5,145l-28.3-16.4c-1.5-0.9-2.7-3-2.7-4.7l0-2.1l0.1-28.9l0-1.6c0-1.7,1.2-3.9,2.8-4.7l28.3-16.3
				c1.5-0.9,4-0.9,5.5,0l28.3,16.4c1.5,0.9,2.7,3,2.7,4.7l0,2l-0.1,28.9l0.1-28.9l0-2c0-1.7-1.2-3.9-2.7-4.7l-28.3-16.4
				c-1.5-0.9-4-0.9-5.5,0l-28.3,16.3c-1.5,0.9-2.7,3-2.8,4.7l0,1.6l-0.1,28.9"/>
		</g>
		<g>
			<g>
				<path fill="#3471A9" d="M132.8,125.3C132.7,125.3,132.7,125.3,132.8,125.3C132.7,125.3,132.8,125.3,132.8,125.3z"/>
			</g>
			<g>
				<g>
					<path fill="#3471A9" d="M122.4,116.8c-0.2-0.1-0.5,0-0.7,0c-0.9-0.1-1.9,0.2-2.9,0.4c-0.7,0.1-1.3,0.4-1.9,0.5
						c-0.1,0-0.1,0.1-0.2,0.1l0,0.3c0.7-0.4,1.5-0.4,2.3-0.6C120.1,117.2,121.2,116.8,122.4,116.8z"/>
				</g>
				<g>
					<path fill="#3471A9" d="M116.7,119.4l0.2,0L116.7,119.4l7.4,5c0.6-0.3,1.2-0.6,1.7-1c-0.2,0-0.3,0.2-0.5,0.1
						c0.1,0,0-0.2,0.1-0.2c0.7-0.2,1.3-0.6,2.1-0.9c-0.3,0-0.5,0.2-0.7,0c0.1-0.1,0.2-0.2,0.4-0.2c0-0.1,0-0.1,0-0.2
						c0-0.1,0.1-0.1,0.1-0.1c-0.1,0-0.1-0.1-0.1-0.1c0.1-0.1,0.3-0.1,0.4-0.2c-0.1,0-0.2,0-0.2-0.1c0.2-0.3,0.5-0.3,0.9-0.4
						c-0.1-0.1-0.3,0-0.3-0.1c0-0.1,0.1-0.1,0.1-0.1c-0.1,0-0.1,0-0.1,0c-0.1-0.1-0.1-0.2-0.1-0.3c0.4-0.5,0.4-1.1,0.6-1.6
						c-0.1,0-0.1,0-0.1-0.1c-0.7,0.7-1.7,1-2.7,1.3c-0.1,0-0.3,0-0.3,0c-0.3,0.1-0.8,0.1-1.1-0.1c-0.3-0.1-0.4-0.3-0.7-0.5
						c-0.5-0.3-1.1-0.6-1.7-0.8c-1.7-0.5-3.4-0.8-5.1-0.7L116.7,119.4L116.7,119.4L116.7,119.4L116.7,119.4L116.7,119.4z"/>
				</g>
				<g>
					<path fill="#3471A9" d="M151.7,111.2c-0.1-0.2-0.6-0.2-0.9-0.3c-0.3-0.1-0.7,0-1.1,0.1c-0.3,0-0.7,0.2-1,0.3
						c-0.5,0.1-0.9,0.4-1.3,0.7c0.5-0.2,0.9-0.3,1.5-0.4c0.4,0,0.7-0.1,1.1,0c0.3,0.1,0.7,0.1,0.7,0.2c-0.1,0.5-0.9,0.7-1.3,1.2
						c-0.1,0-0.1,0-0.2,0c-0.2,0.1-0.1,0.5-0.3,0.5c-0.2-0.1-0.4,0-0.6,0.1c0.3,0.3,0.6,0.5,1,0.4c0.1,0,0.2,0.1,0.2,0.3
						c0,0,0.1,0,0.1-0.1c0.1,0,0.1,0,0.1,0.1c0,0.1,0,0.2,0,0.3c-0.2,0.3-0.5,0.1-0.8,0.2c0.5,0.1,1.1,0.1,1.5,0
						c0.4-0.1,0-0.8,0.3-1.1c-0.1,0,0-0.2-0.1-0.2c0.1-0.1,0.3-0.3,0.4-0.4c0.1,0,0.3-0.1,0.4-0.2c0-0.1-0.3-0.2-0.2-0.3
						C151.5,112,151.9,111.6,151.7,111.2z"/>
				</g>
				<g>
					<path fill="#3471A9" d="M156.5,90.2l-15.9-10.6l0,0l0,0.1l-15.9,10.5l-8,5.3l0,21.6c0.5-0.4,1-0.7,1.7-0.8
						c1.2-0.2,2.3,0,3.6,0.1c0.9,0.1,1.7,0.3,2.5,0.5c0.3,0,0.4,0.5,0.7,0.6c0.4,0.1,0.8,0,1.2,0.3c0-0.1-0.1-0.3,0-0.4
						c0.3-0.3,0.6,0.1,0.9-0.1c0.5-0.3-0.5-0.9-0.7-1.4c0-0.1,0.1-0.1,0.1-0.1c0.5,0.5,0.9,1,1.6,1.3c0.3,0.1,1.1,0.3,1-0.1
						c-0.3-0.7-1-1.3-1.5-2c0-0.1,0-0.2,0-0.3c-0.1,0-0.1-0.1-0.2-0.1c0-0.1,0-0.2,0-0.3c-0.3-0.1-0.2-0.4-0.3-0.6
						c-0.2-0.3-0.1-0.8-0.2-1.2c-0.1-0.4-0.2-0.7-0.3-1.1c-0.2-1.1-0.5-2.1-0.6-3.2c-0.1-1.3,0.7-2.3,1.3-3.4c0.5-0.8,1-1.6,1.9-2.1
						c0.2-0.8,0.7-1.5,1.3-2.1c0.5-0.7,1.7-1.2,2.1-1.4c12.1-5.4,17.4,0.6,17.7,1.1c0.1,0.2,0.3,0.6,0.2,0.9c-0.1,0.3-0.2,0.9-0.5,1
						c-0.4,0.2-0.9,0.2-1.4,0.1c-0.3,0-0.5-0.1-0.8-0.1c1,0.4,1.9,0.9,2.6,1.8c0.1,0.1,0.3,0.2,0.6,0.2c0.1,0,0.1,0.1,0.1,0.2
						c-0.1,0.1-0.3,0.2-0.2,0.4c0.1,0,0.1,0,0.2,0c0.3-0.1,0.3-0.8,0.7-0.6c0.3,0.2,0.5,0.7,0.3,1c-0.3,0.3-0.5,0.5-0.8,0.7
						c-0.1,0.1-0.1,0.3,0,0.5c0.2,0.3,0.3,0.5,0.3,0.8c0.2,0.5,0.3,1,0.5,1.5c0.3,1,0.5,2,0.5,3c0,0.5-0.3,1-0.1,1.5
						c0.1,0.5,0.5,0.9,0.7,1.4c0.3,0.4,0.5,0.7,0.7,1.1c0.4,0.7,1.1,1.3,0.8,2.1c-0.2,0.5-0.9,0.4-1.4,0.7c-0.4,0.3-0.1,0.9,0.1,1.2
						c0.3,0.6-0.4,1-0.9,1.2c0.1,0.2,0.4,0.1,0.5,0.3c0.1,0.3,0.4,0.5,0.2,0.9c-0.3,0.4-1.1,0.6-0.7,1.2c0.3,0.5,0.1,1-0.1,1.5
						c-0.2,0.6-0.7,0.9-1.2,1c-0.4,0.1-0.9,0.1-1.3,0.1c-0.1-0.1-0.3-0.1-0.4-0.1c-1.1-0.1-2.3-0.5-3.4-0.5
						c-0.3,0.1-0.7,0.1-0.9,0.3c-1.1,1-5.8,7.1-6.8,8.7l1.9,1.3l23.9-15.9l0,0h0l0,0l0.1-24L156.5,90.2z"/>
				</g>
				<g>
					<path fill="#3471A9" d="M126.5,125.6c-0.1,0.1-0.2,0.1-0.3,0.1l0.6,0.4c0.2-0.1,0.4-0.3,0.6-0.4c0.3-0.1,0.6-0.5,1-0.7
						c0.5-0.4,0.9-0.9,1.1-1.5c0-0.1-0.1-0.1-0.1-0.1C128.5,124.3,127.5,125.1,126.5,125.6z"/>
				</g>
				<g>
					<g>
						<path fill="#3471A9" d="M132.7,125.3C132.6,125.4,132.6,125.4,132.7,125.3c-0.1,0-0.1-0.1-0.1-0.1c-0.9-0.1-1.5,0.5-2.1,1
							c-0.1,0.1-0.3-0.1-0.3-0.1c-0.7,0.2-1.2,0.7-1.8,1.1l1.7,1.1c0.8-0.9,1.7-1.8,2.7-2.6c0.1-0.1,0.1-0.2,0.1-0.3
							c-0.3,0.1-0.5,0.4-0.9,0.5c-0.1,0-0.1-0.1-0.1-0.1C132.2,125.7,132.4,125.5,132.7,125.3z M132.2,125.6
							C132.2,125.6,132.2,125.6,132.2,125.6C132.2,125.6,132.2,125.6,132.2,125.6z"/>
					</g>
				</g>
			</g>
		</g>
	</g>
</g>
</svg>
